<svg width="67" height="29" viewBox="0 0 67 29" fill="none" xmlns="http://www.w3.org/2000/svg">
<path d="M12.557 3.96846C13.3271 2.97826 13.8772 1.658 13.7122 0.337738C12.557 0.392749 11.1817 1.10789 10.3565 2.04307C9.64138 2.86824 8.98125 4.24351 9.14628 5.50876C10.4665 5.6738 11.7318 4.95865 12.557 3.96846Z" fill="black"/>
<path d="M13.7122 5.83884C11.8418 5.72882 10.2465 6.88405 9.36631 6.88405C8.48614 6.88405 7.11086 5.89385 5.62557 5.89385C3.70019 5.94886 1.93984 6.99407 0.949645 8.75442C-1.03075 12.2201 0.399537 17.3361 2.37993 20.1417C3.31511 21.5169 4.47034 23.0572 5.95564 23.0022C7.38592 22.9472 7.93603 22.0671 9.64137 22.0671C11.3467 22.0671 11.8418 23.0022 13.3821 22.9472C14.9224 22.8922 15.9126 21.572 16.8478 20.1417C17.948 18.5464 18.3881 17.0061 18.3881 16.951C18.3331 16.896 15.3625 15.7958 15.3625 12.3851C15.3075 9.52457 17.673 8.1493 17.783 8.09428C16.5177 6.11389 14.4273 5.89385 13.7122 5.83884Z" fill="black"/>
<path d="M29.8854 1.93307C33.9562 1.93307 36.7617 4.73863 36.7617 8.75443C36.7617 12.8252 33.9012 15.6308 29.7754 15.6308H25.3195V22.7272H22.0738V1.93307H29.8854ZM25.3195 12.9353H29.0052C31.8108 12.9353 33.4061 11.3949 33.4061 8.80944C33.4061 6.16891 31.8108 4.68362 29.0052 4.68362H25.2645V12.9353H25.3195Z" fill="black"/>
<path d="M37.5869 18.4913C37.5869 15.8508 39.6223 14.2005 43.253 13.9804L47.4339 13.7604V12.6052C47.4339 10.8998 46.2786 9.90964 44.4083 9.90964C42.5929 9.90964 41.4927 10.7898 41.2176 12.1101H38.247C38.4121 9.35953 40.7775 7.32413 44.5183 7.32413C48.204 7.32413 50.5695 9.24951 50.5695 12.3301V22.7822H47.5989V20.3067H47.5439C46.6637 22.012 44.7383 23.0572 42.7579 23.0572C39.6773 23.0572 37.5869 21.1869 37.5869 18.4913ZM47.4339 17.1161V15.9058L43.6931 16.1259C41.8228 16.2359 40.7775 17.0611 40.7775 18.3813C40.7775 19.7016 41.8778 20.5818 43.5281 20.5818C45.7285 20.5818 47.4339 19.0965 47.4339 17.1161Z" fill="black"/>
<path d="M53.32 28.3933V25.8628C53.5401 25.9179 54.0902 25.9179 54.3102 25.9179C55.7405 25.9179 56.5107 25.3127 57.0058 23.7724C57.0058 23.7174 57.2808 22.8372 57.2808 22.8372L51.7797 7.65424H55.1354L58.9862 20.0317H59.0412L62.8919 7.65424H66.1926L60.5265 23.6624C59.2062 27.3481 57.7209 28.5034 54.5853 28.5034C54.3652 28.4484 53.5951 28.4484 53.32 28.3933Z" fill="black"/>
</svg>
