<svg width="79" height="31" viewBox="0 0 79 31" fill="none" xmlns="http://www.w3.org/2000/svg">
<path d="M36.5845 14.9968V23.9917H33.7299V1.77945H41.2976C43.2155 1.77945 44.8509 2.41876 46.189 3.69738C47.5569 4.976 48.2408 6.5371 48.2408 8.38069C48.2408 10.2689 47.5569 11.83 46.189 13.0937C44.8658 14.3575 43.2304 14.9819 41.2976 14.9819H36.5845V14.9968ZM36.5845 4.5151V12.2612H41.357C42.487 12.2612 43.4385 11.8746 44.1819 11.1163C44.9401 10.3581 45.3267 9.4363 45.3267 8.39556C45.3267 7.36969 44.9401 6.46276 44.1819 5.70451C43.4385 4.91653 42.5018 4.52997 41.357 4.52997H36.5845V4.5151Z" fill="#3C4043"/>
<path d="M55.7043 8.2915C57.8156 8.2915 59.4807 8.85647 60.6999 9.98642C61.919 11.1164 62.5286 12.6626 62.5286 14.6251V23.9918H59.8078V21.8806H59.6889C58.5143 23.6201 56.9384 24.4824 54.9758 24.4824C53.2958 24.4824 51.8982 23.9918 50.7683 22.9956C49.6383 21.9995 49.0734 20.7655 49.0734 19.2787C49.0734 17.7027 49.6681 16.4539 50.8575 15.5321C52.0469 14.5954 53.6377 14.1345 55.6151 14.1345C57.3101 14.1345 58.7076 14.4467 59.793 15.0712V14.417C59.793 13.4208 59.4064 12.5883 58.6184 11.8895C57.8304 11.1907 56.9086 10.8487 55.853 10.8487C54.2622 10.8487 52.9984 11.5178 52.0766 12.8707L49.564 11.2948C50.9467 9.28764 52.9984 8.2915 55.7043 8.2915ZM52.0172 19.3233C52.0172 20.0667 52.3294 20.6911 52.9687 21.1818C53.5931 21.6724 54.3365 21.9252 55.184 21.9252C56.3883 21.9252 57.4587 21.4791 58.3954 20.5871C59.3321 19.695 59.8078 18.6543 59.8078 17.45C58.9158 16.7512 57.6817 16.3944 56.0909 16.3944C54.9312 16.3944 53.9648 16.6769 53.1917 17.227C52.4037 17.8068 52.0172 18.5056 52.0172 19.3233Z" fill="#3C4043"/>
<path d="M78.0504 8.78214L68.5351 30.6673H65.5913L69.1298 23.0105L62.8557 8.78214H65.963L70.4828 19.695H70.5423L74.9431 8.78214H78.0504Z" fill="#3C4043"/>
<path d="M25.2256 13.183C25.2256 12.2463 25.1364 11.3691 24.9877 10.5068H13.0193V15.4131H19.9179C19.6354 17.0486 18.7433 18.4313 17.3606 19.3679V22.5496H21.4641C23.8578 20.3343 25.2256 17.0486 25.2256 13.183Z" fill="#4285F4"/>
<path d="M17.3606 19.3679C16.2158 20.141 14.7439 20.5871 13.0341 20.5871C9.70375 20.5871 6.89376 18.342 5.88276 15.3239H1.64548V18.6097C3.74182 22.7726 8.05344 25.6272 13.0341 25.6272C16.4685 25.6272 19.3677 24.4973 21.4641 22.5496L17.3606 19.3679Z" fill="#34A853"/>
<path d="M5.48136 12.8856C5.48136 12.0382 5.63003 11.2204 5.88278 10.4473V7.16156H1.6455C0.783174 8.88621 0.292542 10.819 0.292542 12.8856C0.292542 14.9522 0.783174 16.885 1.6455 18.6097L5.88278 15.3239C5.61517 14.5657 5.48136 13.7479 5.48136 12.8856Z" fill="#FABB05"/>
<path d="M13.0341 5.19904C14.9074 5.19904 16.5875 5.85322 17.9256 7.11697L21.5681 3.48926C19.3529 1.43752 16.4834 0.173767 13.049 0.173767C8.0683 0.173767 3.75668 3.02836 1.66034 7.19131L5.89762 10.4771C6.89376 7.44406 9.70375 5.19904 13.0341 5.19904Z" fill="#E94235"/>
</svg>
