<svg width="170" height="38" viewBox="0 0 170 38" fill="none" xmlns="http://www.w3.org/2000/svg">
<g clip-path="url(#clip0_53_5682)">
<path d="M37.9515 18.7257C37.9515 8.3838 29.5677 0 19.2257 0C8.8838 0 0.5 8.3838 0.5 18.7257C0.5 29.0677 8.8838 37.4515 19.2257 37.4515C29.5677 37.4515 37.9515 29.0677 37.9515 18.7257Z" fill="#E0736E"/>
<path d="M26.3937 21.872C25.9699 23.0859 25.1351 24.1135 24.0337 24.777C22.8307 25.4893 21.4575 25.8634 20.0594 25.8596C15.7387 25.8596 12.2716 22.3811 12.582 18.2061C12.8488 14.6254 15.9507 11.7563 19.7206 11.5993C21.2064 11.5308 22.6805 11.8908 23.9675 12.6364C25.0995 13.2979 25.9595 14.3403 26.3937 15.5774L26.4051 15.6115H31.6342C31.125 13.6141 30.1337 11.7722 28.7472 10.247C27.3607 8.7219 25.6212 7.56012 23.6813 6.86354C21.7414 6.16696 19.6602 5.95684 17.6202 6.25159C15.5801 6.54634 13.6436 7.33696 11.9802 8.55417C14.5237 7.56384 17.346 7.56251 19.8904 8.55045C22.4349 9.53839 24.5168 11.4439 25.7257 13.8911H25.6935C23.8918 10.7722 20.4057 8.65447 16.4087 8.65447C16.2781 8.65447 16.1494 8.65447 16.0188 8.65447C14.0208 8.71952 12.0951 9.41782 10.5198 10.6485C8.94451 11.8793 7.80104 13.5788 7.25448 15.5017C6.67155 17.6102 6.67155 19.8373 7.25448 21.9458C7.80119 23.8683 8.94481 25.5673 10.5202 26.7974C12.0956 28.0275 14.0211 28.725 16.0188 28.7892C16.1475 28.7892 16.2781 28.7892 16.4087 28.7892C20.4057 28.7892 23.8918 26.6715 25.6916 23.5544H25.7257C24.5174 26.004 22.4339 27.9109 19.8873 28.8981C17.3406 29.8853 14.5162 29.8809 11.9726 28.8857C13.6353 30.1047 15.5718 30.8971 17.612 31.1934C19.6523 31.4898 21.7342 31.281 23.675 30.5855C25.6158 29.89 27.3564 28.7289 28.7441 27.2041C30.1317 25.6794 31.1241 23.8374 31.6342 21.8398H26.4051L26.3937 21.872Z" fill="white"/>
<path d="M43.5193 18.3935C43.5193 14.3245 45.8465 12.29 50.5009 12.29C52.2256 12.29 53.6381 12.6553 54.7383 13.3858C55.8043 14.0736 56.6133 15.0941 57.0396 16.289C57.1784 16.7306 57.1974 17.0662 57.0964 17.2958C56.9955 17.5254 56.7476 17.7109 56.3526 17.8522L54.6494 18.454C54.216 18.613 53.8923 18.6433 53.6709 18.5279C53.4495 18.4124 53.2508 18.1493 53.0748 17.7008C52.6357 16.699 51.7752 16.1981 50.4933 16.1981C48.8695 16.1981 48.0621 16.9596 48.0709 18.4824L48.0557 22.663C48.0393 24.1657 48.843 24.9177 50.4668 24.919C51.6705 24.919 52.5026 24.4073 52.9631 23.3841C53.1296 22.964 53.3246 22.7034 53.5479 22.6025C53.7693 22.5022 54.0948 22.523 54.5207 22.663L56.5192 23.2649C57.3532 23.5652 57.5973 24.0963 57.2516 24.8584C56.1729 27.508 53.9201 28.8327 50.4933 28.8327C48.1882 28.8327 46.4502 28.2416 45.2794 27.0594C44.1085 25.8772 43.5231 24.2635 43.5231 22.2183L43.5193 18.3935Z" fill="#373743"/>
<path d="M66.3282 28.8705C63.7487 28.8705 62.0019 28.4598 60.9837 27.6157C59.9655 26.7716 59.4356 25.4469 59.4507 23.7171C59.4677 21.8946 60.0355 20.5887 61.1389 19.8374C62.21 19.1069 63.9777 18.7378 66.3888 18.7378C66.5932 18.7378 67.3521 18.7757 68.832 18.8627V18.399C68.832 17.572 68.6636 16.955 68.3097 16.5652C67.9558 16.1753 67.3426 15.9974 66.4399 15.9974C65.1264 15.9974 64.2218 16.4043 63.673 17.2408C63.4042 17.6193 63.1904 17.8275 62.9689 17.9013C62.8827 17.9288 62.7926 17.9423 62.7021 17.9411C62.4613 17.9308 62.224 17.8803 62 17.7915L60.8209 17.29C60.4489 17.1485 60.1449 16.8703 59.9712 16.5122C59.901 16.3304 59.8743 16.1348 59.8934 15.9408C59.9125 15.7469 59.9767 15.5602 60.0809 15.3956C61.1937 13.293 63.3153 12.2256 66.3869 12.2256C68.5841 12.2256 70.2628 12.7839 71.3756 13.8891C72.4884 14.9944 73.0108 16.5727 72.9918 18.6489L72.9218 26.1357C72.9218 26.7035 72.8234 27.1255 72.6379 27.3943C72.3871 27.7086 72.0535 27.9465 71.6746 28.0813C70.4823 28.6074 68.6806 28.8705 66.3282 28.8705ZM66.1276 22.2788C65.1813 22.2788 64.5133 22.4131 64.165 22.6743C63.8168 22.9355 63.6749 23.3026 63.6692 23.8325C63.6635 24.3624 63.7922 24.722 64.0477 24.9397C64.2048 25.074 64.6533 25.2992 65.8929 25.2992C66.8271 25.3213 67.7612 25.2484 68.6806 25.0816C68.7734 25.0438 68.7734 25.0097 68.7753 24.9889L68.798 22.4018C66.7162 22.3034 66.19 22.2806 66.1276 22.2788V22.2788Z" fill="#373743"/>
<path d="M75.4597 17.0325C75.4711 15.5084 76.0161 14.3356 77.0949 13.5143C78.1736 12.6929 79.7747 12.2822 81.8981 12.2822C85.1054 12.2822 87.2994 13.3547 88.4804 15.4995C88.6911 15.9008 88.7573 16.2212 88.6791 16.461C88.6009 16.7007 88.3574 16.9114 87.9486 17.0931L86.2964 17.7895C85.863 17.9504 85.5678 17.9996 85.4069 17.9409C85.246 17.8823 85.0284 17.6684 84.7691 17.3088C84.2203 16.5871 83.3245 16.2263 82.0817 16.2263C80.6182 16.2263 79.87 16.5871 79.8372 17.3088C79.8288 17.511 79.8856 17.7105 79.999 17.8781C80.1124 18.0457 80.2766 18.1725 80.4674 18.2399C80.8913 18.4216 81.6527 18.5623 82.7517 18.662C84.8347 18.8815 86.4169 19.3824 87.4982 20.1647C88.5794 20.9469 89.1175 22.1796 89.1125 23.8627C89.1125 25.4284 88.5302 26.6466 87.3657 27.5172C86.2011 28.3877 84.5395 28.8236 82.3807 28.8249C78.7117 28.8249 76.3965 27.632 75.4351 25.2461C75.1645 24.5061 75.4049 24.0046 76.1619 23.7434L77.9806 23.1416C78.3995 23.0218 78.6966 23.0016 78.872 23.0811C79.0473 23.1605 79.248 23.3914 79.4738 23.7737C79.9293 24.5307 80.8383 24.9092 82.2009 24.9092C83.9055 24.9092 84.7754 24.4979 84.8108 23.6753C84.8206 23.4597 84.7606 23.2466 84.6395 23.0679C84.5184 22.8892 84.3428 22.7544 84.1389 22.6836C83.696 22.5032 82.8526 22.3524 81.6086 22.2313C80.8303 22.1661 80.0602 22.0254 79.3092 21.8112C78.63 21.6099 77.9818 21.3163 77.3825 20.9387C76.7737 20.5593 76.2822 20.018 75.9631 19.3755C75.6107 18.6459 75.4381 17.8425 75.4597 17.0325V17.0325Z" fill="#373743"/>
<path d="M94.7939 6.12402C95.1932 6.12402 95.4733 6.2054 95.6323 6.36627C95.7913 6.52713 95.867 6.81669 95.8613 7.23684L95.884 12.5H96.0733C96.1698 12.4792 96.306 12.4546 96.482 12.4243C96.6581 12.394 96.8606 12.3694 97.0839 12.3486C97.3072 12.3278 97.5684 12.3145 97.8579 12.3051C98.1475 12.2956 98.4257 12.2899 98.6831 12.2899C100.828 12.2899 102.447 12.8577 103.541 13.9932C104.635 15.1287 105.178 16.7058 105.169 18.7246L105.203 27.2637C105.203 27.6838 105.112 27.9753 104.949 28.1343C104.787 28.2932 104.497 28.3765 104.075 28.3765H101.724C101.323 28.3765 101.039 28.2951 100.871 28.1343C100.702 27.9734 100.621 27.6838 100.627 27.2637L100.615 18.664C100.651 17.1588 99.8066 16.4068 98.0831 16.4081C97.8825 16.4081 97.6687 16.4194 97.4416 16.4384C97.2145 16.4573 97.012 16.4781 96.8359 16.4989C96.6599 16.5197 96.4972 16.5387 96.3496 16.5595C96.2369 16.5729 96.1251 16.5925 96.0146 16.6182L95.8689 16.6484V27.2637C95.8689 27.6838 95.7799 27.9753 95.6172 28.1343C95.4544 28.2932 95.1743 28.3765 94.7731 28.3765H92.4339C92.0119 28.3765 91.7223 28.2951 91.5633 28.1343C91.4044 27.9734 91.3287 27.6838 91.3343 27.2637L91.3211 7.23684C91.3211 6.81669 91.41 6.52524 91.5728 6.36627C91.7356 6.20729 92.027 6.12402 92.4471 6.12402H94.7939Z" fill="#373743"/>
<path d="M107.483 17.0325C107.495 15.5084 108.039 14.3356 109.117 13.5143C110.194 12.6929 111.796 12.2822 113.922 12.2822C117.128 12.2822 119.321 13.3547 120.502 15.4995C120.714 15.9008 120.781 16.2212 120.703 16.461C120.625 16.7007 120.381 16.9114 119.972 17.0931L118.32 17.7895C117.887 17.9504 117.59 17.9996 117.429 17.9409C117.268 17.8823 117.05 17.6684 116.791 17.3088C116.243 16.5871 115.348 16.2263 114.105 16.2263C112.642 16.2263 111.894 16.5871 111.861 17.3088C111.853 17.511 111.909 17.7105 112.023 17.8781C112.136 18.0457 112.3 18.1725 112.491 18.2399C112.914 18.4216 113.675 18.5623 114.775 18.662C116.858 18.8815 118.44 19.3824 119.52 20.1647C120.6 20.9469 121.138 22.1796 121.134 23.8627C121.134 25.4284 120.553 26.6466 119.389 27.5172C118.226 28.3877 116.564 28.8236 114.403 28.8249C110.735 28.8249 108.42 27.632 107.457 25.2461C107.187 24.5068 107.429 24.0059 108.184 23.7434L110.002 23.1416C110.422 23.0218 110.72 23.0016 110.894 23.0811C111.068 23.1605 111.269 23.3914 111.497 23.7737C111.952 24.5307 112.861 24.9092 114.225 24.9092C115.928 24.9092 116.797 24.4979 116.833 23.6753C116.843 23.4598 116.784 23.2466 116.663 23.0678C116.542 22.889 116.366 22.7542 116.163 22.6836C115.72 22.5032 114.876 22.3524 113.632 22.2313C112.854 22.1661 112.084 22.0254 111.333 21.8112C110.653 21.6098 110.004 21.3162 109.404 20.9387C108.796 20.5586 108.306 20.0175 107.987 19.3755C107.634 18.6459 107.462 17.8425 107.483 17.0325V17.0325Z" fill="#373743"/>
<path d="M122.856 18.454C122.868 16.4681 123.499 14.9446 124.749 13.8836C125.999 12.8225 127.785 12.2913 130.107 12.29C132.211 12.29 133.921 12.8061 135.236 13.8381C135.869 14.3167 136.38 14.9378 136.728 15.6511C137.076 16.3643 137.251 17.1496 137.238 17.9431C137.238 20.7894 135.063 22.2126 130.714 22.2126C129.591 22.1908 128.471 22.1004 127.359 21.942L127.376 22.7236C127.354 24.3083 128.246 25.1 130.05 25.0987C131.438 25.0987 132.43 24.6975 133.025 23.8951C133.301 23.5355 133.551 23.3273 133.771 23.2649C133.99 23.2024 134.32 23.2838 134.761 23.5052L136.256 24.3171C137.013 24.7373 137.167 25.3284 136.719 26.0904C135.618 27.9148 133.394 28.8271 130.046 28.8271C127.599 28.8271 125.778 28.1653 124.584 26.8418C123.391 25.5183 122.803 23.8345 122.821 21.7906L122.856 18.454ZM132.736 17.521C132.737 17.2788 132.675 17.0405 132.556 16.8296C132.437 16.6188 132.264 16.4428 132.056 16.3193C131.617 16.0379 130.978 15.8972 130.139 15.8972C129.3 15.8972 128.636 16.113 128.148 16.5445C127.904 16.7675 127.709 17.0391 127.576 17.3419C127.443 17.6447 127.375 17.9719 127.376 18.3026L127.355 18.6944C128.336 18.8296 129.323 18.9099 130.313 18.9347C131.914 18.9347 132.722 18.4635 132.736 17.521V17.521Z" fill="#373743"/>
<path d="M140.603 13.3726C142.381 12.6496 144.431 12.2888 146.755 12.29C148.9 12.29 150.521 12.866 151.617 14.0179C152.714 15.1699 153.259 16.7583 153.254 18.7833L153.275 27.2638C153.275 27.684 153.186 27.9754 153.024 28.1344C152.861 28.2934 152.571 28.3766 152.149 28.3766H149.804C149.403 28.3766 149.117 28.2953 148.949 28.1344C148.78 27.9735 148.699 27.684 148.705 27.2638L148.686 18.6641C148.701 17.1589 147.856 16.4069 146.152 16.4082C145.437 16.3997 144.725 16.4908 144.036 16.6788C143.994 16.6788 143.962 16.7205 143.936 16.8L143.947 27.2638C143.947 27.684 143.858 27.9754 143.695 28.1344C143.532 28.2934 143.25 28.3766 142.851 28.3766H140.504C140.084 28.3766 139.795 28.2953 139.636 28.1344C139.477 27.9735 139.401 27.684 139.407 27.2638V15.1156C139.389 14.7348 139.473 14.3561 139.649 14.0179C139.791 13.787 140.116 13.5732 140.603 13.3726Z" fill="#373743"/>
<path d="M155.675 18.3575C155.689 16.2719 156.23 14.7384 157.299 13.7568C158.367 12.7752 159.995 12.2844 162.182 12.2844C163.107 12.291 164.032 12.3542 164.95 12.4736V7.24074C164.95 6.8206 165.041 6.52915 165.204 6.37017C165.367 6.2112 165.656 6.12793 166.078 6.12793H168.423C168.824 6.12793 169.104 6.20931 169.263 6.37017C169.422 6.53104 169.504 6.81303 169.504 7.23696V26.151C169.491 26.6525 169.413 27.0026 169.267 27.2033C169.121 27.4039 168.807 27.6045 168.321 27.8051C166.681 28.4864 164.706 28.8271 162.397 28.8271C160.172 28.8271 158.492 28.2259 157.359 27.0235C156.226 25.8211 155.669 24.2074 155.688 22.1823L155.675 18.3575ZM164.948 16.5236C164.292 16.4077 163.628 16.3445 162.961 16.3344C162.019 16.3344 161.325 16.5236 160.879 16.9022C160.434 17.2807 160.21 17.9115 160.208 18.7947V22.5533C160.208 23.256 160.428 23.7973 160.87 24.1771C161.312 24.5568 161.932 24.7461 162.73 24.7448C163.455 24.7612 164.18 24.6907 164.888 24.5348C164.936 24.4969 164.97 24.4433 164.983 24.3834L164.948 16.5236Z" fill="#373743"/>
</g>
<defs>
<clipPath id="clip0_53_5682">
<rect width="169" height="37.4515" fill="white" transform="translate(0.5)"/>
</clipPath>
</defs>
</svg>
