<svg width="80" height="79" viewBox="0 0 80 79" fill="none" xmlns="http://www.w3.org/2000/svg">
<rect width="80" height="79" rx="12" fill="#F9E3E2"/>
<path d="M45.3733 45.8465L41.685 53.5965C41.6152 53.7431 41.5108 53.8704 41.3808 53.9676C41.2508 54.0647 41.0991 54.1288 40.9388 54.1542C40.7785 54.1797 40.6144 54.1657 40.4607 54.1135C40.307 54.0614 40.1683 53.9726 40.0566 53.8548L34.1533 47.6232C33.9956 47.4569 33.7855 47.3498 33.5583 47.3198L25.0466 46.2065C24.8858 46.1853 24.7326 46.1253 24.6001 46.0317C24.4676 45.9381 24.3599 45.8137 24.2863 45.6692C24.2126 45.5246 24.1752 45.3644 24.1773 45.2022C24.1794 45.04 24.2209 44.8808 24.2983 44.7382L28.4016 37.1982C28.5107 36.9965 28.5472 36.7635 28.505 36.5382L26.9333 28.0998C26.9034 27.9401 26.913 27.7755 26.961 27.6203C27.0091 27.4651 27.0943 27.324 27.2092 27.2091C27.3241 27.0942 27.4652 27.009 27.6204 26.9609C27.7756 26.9129 27.9402 26.9033 28.1 26.9332L36.5383 28.5048C36.7636 28.5471 36.9966 28.5106 37.1983 28.4015L44.7383 24.2982C44.881 24.2208 45.0404 24.1793 45.2027 24.1773C45.365 24.1753 45.5253 24.2129 45.6699 24.2867C45.8144 24.3605 45.9388 24.4684 46.0323 24.6011C46.1259 24.7338 46.1857 24.8872 46.2066 25.0482L47.32 33.5582C47.3499 33.7854 47.457 33.9955 47.6233 34.1532L53.855 40.0565C53.9727 40.1682 54.0615 40.3069 54.1136 40.4606C54.1658 40.6143 54.1798 40.7784 54.1544 40.9387C54.1289 41.099 54.0648 41.2507 53.9677 41.3807C53.8705 41.5107 53.7432 41.6151 53.5966 41.6848L45.8466 45.3732C45.6392 45.4719 45.472 45.639 45.3733 45.8465ZM46.7016 49.0582L49.0583 46.7015L56.13 53.7715L53.7716 56.1298L46.7016 49.0582Z" fill="#E0736E"/>
</svg>
