<svg width="80" height="79" viewBox="0 0 80 79" fill="none" xmlns="http://www.w3.org/2000/svg">
<rect width="80" height="79" rx="12" fill="#F9E3E2"/>
<path d="M54 57.5H26C25.5359 57.5 25.0908 57.3156 24.7626 56.9874C24.4344 56.6592 24.25 56.2141 24.25 55.75V24.25C24.25 23.7859 24.4344 23.3408 24.7626 23.0126C25.0908 22.6844 25.5359 22.5 26 22.5H54C54.4641 22.5 54.9093 22.6844 55.2374 23.0126C55.5656 23.3408 55.75 23.7859 55.75 24.25V55.75C55.75 56.2141 55.5656 56.6592 55.2374 56.9874C54.9093 57.3156 54.4641 57.5 54 57.5ZM52.25 54V26H27.75V54H52.25ZM33 34.75H47V38.25H33V34.75ZM33 41.75H47V45.25H33V41.75Z" fill="#E0736E"/>
<rect x="12.9417" y="20.9707" width="11.3549" height="63.78" transform="rotate(-45 12.9417 20.9707)" fill="#F9E3E2"/>
<rect x="17.5764" y="20.7844" width="4.53666" height="57.4893" transform="rotate(-45 17.5764 20.7844)" fill="#E0736E"/>
</svg>
