<svg width="80" height="79" viewBox="0 0 80 79" fill="none" xmlns="http://www.w3.org/2000/svg">
<rect width="80" height="79" rx="12" fill="#F9E3E2"/>
<path d="M43.8333 20.8333C47.3408 20.8316 50.7428 22.0324 53.4719 24.2356C56.2011 26.4387 58.0925 29.5109 58.8306 32.9398C59.5687 36.3687 59.1089 39.947 57.528 43.078C55.947 46.2089 53.3404 48.7032 50.143 50.1448C49.1209 52.4044 47.566 54.3824 45.6117 55.9091C43.6574 57.4358 41.3619 58.4657 38.9221 58.9104C36.4823 59.3551 33.9711 59.2015 31.6038 58.4626C29.2364 57.7237 27.0836 56.4216 25.33 54.668C23.5764 52.9143 22.2743 50.7616 21.5354 48.3942C20.7965 46.0269 20.6428 43.5156 21.0876 41.0759C21.5323 38.6361 22.5622 36.3406 24.0889 34.3863C25.6156 32.4319 27.5936 30.8771 29.8531 29.855C31.0686 27.1657 33.034 24.8841 35.5137 23.2839C37.9934 21.6837 40.8821 20.8328 43.8333 20.8333V20.8333ZM36.1666 32.3333C34.6564 32.3333 33.161 32.6307 31.7658 33.2086C30.3705 33.7866 29.1028 34.6337 28.0349 35.7015C26.967 36.7694 26.12 38.0371 25.542 39.4324C24.9641 40.8276 24.6666 42.3231 24.6666 43.8333C24.6666 45.3435 24.9641 46.8389 25.542 48.2341C26.12 49.6294 26.967 50.8971 28.0349 51.965C29.1028 53.0329 30.3705 53.8799 31.7658 54.4579C33.161 55.0358 34.6564 55.3333 36.1666 55.3333C39.2166 55.3333 42.1417 54.1216 44.2984 51.965C46.455 49.8083 47.6666 46.8832 47.6666 43.8333C47.6666 40.7833 46.455 37.8582 44.2984 35.7015C42.1417 33.5449 39.2166 32.3333 36.1666 32.3333ZM38.0833 34.2499V36.1666H41.9166V39.9999H34.25C34.0105 39.9995 33.7795 40.0887 33.6026 40.2501C33.4256 40.4114 33.3154 40.6332 33.2938 40.8717C33.2722 41.1102 33.3406 41.3481 33.4856 41.5387C33.6307 41.7292 33.8418 41.8586 34.0775 41.9013L34.25 41.9166H38.0833C39.3541 41.9166 40.5729 42.4214 41.4715 43.32C42.3701 44.2186 42.875 45.4374 42.875 46.7083C42.875 47.9791 42.3701 49.1979 41.4715 50.0965C40.5729 50.9951 39.3541 51.4999 38.0833 51.4999V53.4166H34.25V51.4999H30.4166V47.6666H38.0833C38.3228 47.667 38.5537 47.5778 38.7307 47.4164C38.9077 47.2551 39.0178 47.0333 39.0395 46.7948C39.0611 46.5563 38.9927 46.3184 38.8476 46.1278C38.7026 45.9373 38.4915 45.8079 38.2558 45.7653L38.0833 45.7499H34.25C32.9791 45.7499 31.7604 45.2451 30.8618 44.3465C29.9631 43.4479 29.4583 42.2291 29.4583 40.9583C29.4583 39.6874 29.9631 38.4686 30.8618 37.57C31.7604 36.6714 32.9791 36.1666 34.25 36.1666V34.2499H38.0833ZM43.8333 24.6666C42.2093 24.6647 40.6034 25.0076 39.1218 25.6728C37.6402 26.3379 36.3168 27.31 35.239 28.5248C37.4053 28.3933 39.5749 28.7232 41.6042 29.4927C43.6336 30.2621 45.4765 31.4536 47.011 32.9883C48.5456 34.5231 49.7369 36.3661 50.5061 38.3955C51.2753 40.425 51.6049 42.5946 51.4731 44.7609C53.2158 43.2115 54.4463 41.169 55.0014 38.9042C55.5565 36.6394 55.41 34.2593 54.5813 32.0797C53.7526 29.9001 52.2809 28.0239 50.3613 26.6999C48.4418 25.376 46.1651 24.6669 43.8333 24.6666V24.6666Z" fill="#E0736E"/>
</svg>
